<?xml version="1.0" standalone="no"?>
<!DOCTYPE svg PUBLIC "-//W3C//DTD SVG 20010904//EN"
 "http://www.w3.org/TR/2001/REC-SVG-20010904/DTD/svg10.dtd">
<svg version="1.0" xmlns="http://www.w3.org/2000/svg"
 width="719.000000pt" height="719.000000pt" viewBox="0 0 719.000000 719.000000"
 preserveAspectRatio="xMidYMid meet">
<metadata>
Created by potrace 1.14, written by Peter Selinger 2001-2017
</metadata>
<g transform="translate(0.000000,719.000000) scale(0.100000,-0.100000)"
fill="#000000" stroke="none">
<path d="M2097 7184 c-2 -2 -12 -5 -23 -7 -42 -8 -110 -30 -121 -39 -7 -6 -13
-8 -13 -4 0 3 -15 -3 -32 -14 -18 -11 -41 -23 -50 -26 -10 -4 -18 -11 -18 -17
0 -6 -3 -8 -6 -5 -3 3 -23 -11 -44 -32 -21 -21 -41 -35 -44 -32 -3 3 -6 0 -6
-7 0 -6 -11 -24 -24 -38 -14 -15 -33 -42 -43 -62 -10 -20 -21 -38 -25 -41 -3
-3 -9 -22 -13 -43 -4 -20 -11 -37 -16 -37 -4 0 -6 -9 -4 -20 2 -11 1 -20 -3
-20 -7 0 -9 -152 -2 -175 1 -5 2 -18 1 -27 -1 -10 3 -18 8 -18 6 0 10 -3 9 -7
-1 -5 2 -28 6 -52 6 -31 11 -40 17 -30 7 11 9 9 9 -8 0 -12 7 -28 15 -36 8 -8
11 -17 8 -21 -4 -3 -1 -6 5 -6 7 0 12 -5 12 -11 0 -7 29 -39 64 -73 75 -71 96
-89 96 -81 0 4 13 -3 30 -15 16 -12 35 -18 41 -14 7 4 9 3 5 -4 -3 -6 6 -13
24 -17 16 -4 30 -11 30 -16 0 -6 6 -7 13 -3 9 6 9 5 0 -7 -6 -8 -12 -17 -12
-21 -2 -10 -9 -33 -18 -55 -3 -10 -5 -22 -4 -27 1 -4 -4 -14 -10 -22 -6 -8
-13 -24 -14 -37 -4 -37 -5 -38 -14 -33 -5 4 -8 -2 -7 -11 2 -10 -1 -25 -5 -33
-15 -27 -42 -95 -46 -115 -2 -11 -8 -21 -13 -23 -6 -2 -10 -9 -10 -16 0 -18
-91 -220 -102 -227 -6 -3 -9 -9 -8 -13 0 -3 -8 -25 -18 -49 -10 -23 -22 -55
-26 -71 -4 -15 -30 -72 -59 -125 -29 -53 -63 -118 -77 -144 -14 -27 -35 -60
-47 -73 -13 -14 -23 -29 -23 -35 0 -5 -7 -12 -15 -15 -8 -4 -13 -10 -10 -14 3
-5 -1 -15 -9 -23 -8 -8 -12 -17 -9 -21 4 -3 1 -6 -5 -6 -7 0 -12 -6 -12 -13 0
-8 -9 -24 -20 -37 -11 -13 -20 -26 -20 -31 0 -4 -19 -38 -42 -75 -23 -38 -41
-75 -41 -81 0 -7 -4 -13 -9 -13 -5 0 -13 -10 -18 -22 -6 -13 -19 -36 -29 -53
-11 -16 -32 -55 -48 -85 -15 -30 -32 -58 -37 -61 -5 -4 -5 -12 -1 -19 5 -9 4
-11 -3 -6 -7 4 -12 1 -12 -8 0 -9 -4 -16 -8 -16 -5 0 -9 -6 -9 -12 0 -7 -14
-36 -31 -65 -17 -28 -28 -54 -25 -57 4 -3 2 -6 -3 -6 -6 0 -18 -20 -28 -45
-11 -25 -23 -45 -28 -45 -4 0 -8 -7 -8 -16 0 -8 -22 -61 -50 -116 -27 -56 -47
-105 -44 -110 3 -4 1 -8 -4 -8 -5 0 -13 -10 -17 -22 -4 -13 -8 -25 -9 -28 -1
-3 -9 -21 -18 -40 -14 -30 -27 -62 -33 -80 -1 -3 -7 -18 -14 -35 -7 -16 -22
-57 -32 -90 -11 -33 -27 -70 -35 -83 -12 -18 -12 -22 -3 -16 12 6 12 5 0 -9
-7 -9 -10 -17 -5 -17 4 0 3 -5 -4 -12 -7 -7 -12 -22 -12 -35 0 -13 -4 -23 -9
-23 -4 0 -7 -11 -6 -25 2 -14 0 -25 -4 -25 -4 0 -8 -6 -9 -12 0 -7 -3 -23 -6
-35 -3 -13 -8 -32 -11 -43 -3 -11 -7 -29 -10 -40 -16 -66 -27 -129 -29 -167 0
-17 -4 -29 -7 -27 -3 2 -6 -13 -7 -33 -1 -19 -4 -45 -8 -56 -5 -15 -3 -18 7
-12 10 6 9 2 -2 -11 -10 -13 -15 -37 -13 -74 1 -30 -2 -65 -7 -78 -6 -15 -5
-21 1 -17 11 7 9 -23 -3 -41 -3 -6 -4 -14 0 -18 3 -3 7 -29 9 -58 1 -29 6 -75
10 -103 4 -27 6 -58 6 -68 0 -9 3 -17 7 -17 4 0 8 -6 8 -12 3 -44 17 -104 24
-106 5 -2 7 -7 4 -12 -3 -4 2 -21 10 -36 8 -16 15 -37 15 -47 0 -11 4 -15 12
-11 6 4 8 3 4 -4 -3 -6 3 -26 14 -44 10 -18 26 -46 35 -63 29 -56 74 -124 106
-160 51 -58 219 -225 227 -225 5 0 28 -18 53 -40 24 -22 50 -40 57 -40 7 0 15
-6 18 -13 2 -7 27 -26 54 -42 28 -16 50 -33 50 -38 0 -4 4 -6 9 -3 4 3 19 -3
31 -14 12 -11 31 -22 41 -25 11 -4 19 -10 19 -14 0 -4 18 -14 40 -21 21 -7 37
-17 34 -21 -3 -5 4 -9 15 -9 12 0 21 -4 21 -10 0 -5 3 -9 8 -8 4 1 39 -14 78
-34 40 -20 75 -34 78 -31 3 4 6 1 6 -5 0 -7 5 -12 11 -12 5 0 29 -8 52 -19 65
-28 81 -34 90 -33 4 1 7 -3 7 -9 0 -6 7 -9 15 -5 8 3 15 1 15 -4 0 -6 9 -10
20 -10 11 0 20 -4 20 -8 0 -5 6 -9 13 -9 10 0 167 -51 217 -70 32 -13 147 -44
180 -50 19 -3 37 -8 40 -12 3 -3 16 -8 30 -9 14 -2 30 -8 35 -12 13 -11 13
-429 1 -449 -7 -10 -6 -12 4 -6 8 5 11 3 8 -6 -4 -11 -30 -14 -114 -15 -94 -2
-148 -6 -189 -17 -30 -9 -97 -51 -129 -82 -20 -19 -34 -35 -30 -35 3 0 -2 -7
-11 -16 -9 -9 -19 -29 -22 -45 -3 -16 -9 -29 -13 -29 -8 0 -9 -13 -10 -110 -1
-44 3 -76 9 -78 6 -2 11 -10 11 -18 0 -14 19 -54 31 -64 3 -3 8 -13 12 -22 3
-10 14 -18 22 -18 9 0 13 -4 10 -10 -3 -5 -2 -10 3 -10 4 0 17 -8 28 -18 23
-22 99 -53 108 -45 3 4 6 1 6 -5 0 -18 2777 -17 2798 0 13 11 14 11 7 -2 -8
-13 -6 -13 8 -2 9 8 21 11 27 7 5 -3 10 -1 10 6 0 7 3 10 6 6 4 -3 25 7 48 22
54 38 91 71 80 71 -5 0 -1 6 8 14 17 12 43 64 40 79 -1 4 2 7 7 7 5 0 8 11 6
25 -1 14 1 25 5 25 3 0 5 17 3 38 -2 20 -3 48 -3 61 0 13 -5 30 -11 37 -6 7
-9 19 -7 26 3 7 0 18 -6 25 -28 31 -36 43 -36 50 0 14 -72 72 -114 92 -58 27
-93 32 -227 33 l-116 2 3 37 c1 21 6 43 10 50 4 7 3 10 -2 6 -6 -3 -9 72 -9
188 l0 194 40 6 c100 16 425 119 550 175 121 54 265 126 324 161 34 22 67 39
71 39 5 0 10 3 12 8 6 14 106 73 127 75 12 1 21 4 21 8 0 4 10 11 22 15 12 3
31 15 42 25 11 11 26 19 33 19 8 0 11 5 8 10 -3 6 0 10 7 10 7 0 29 14 48 31
19 16 54 44 78 61 23 17 42 35 42 39 0 4 9 10 20 14 11 3 19 9 18 13 -1 4 25
34 58 68 64 66 90 96 89 104 0 3 12 19 28 35 15 16 27 35 27 42 0 7 5 13 11
13 5 0 7 5 4 10 -3 6 -2 10 3 10 9 0 37 50 34 63 -1 4 2 7 7 7 5 0 19 28 31
63 13 34 29 76 36 92 13 32 29 102 27 123 0 6 3 12 7 12 4 0 6 10 6 22 -1 13
0 27 3 33 3 5 6 21 7 35 6 96 9 116 18 128 6 8 6 16 0 20 -5 4 -10 48 -10 97
-2 82 -9 180 -14 180 -1 0 -3 18 -5 40 -2 35 -7 68 -20 125 -2 8 -4 28 -4 43
-1 16 -5 26 -10 23 -4 -3 -7 6 -5 19 1 14 -1 27 -6 30 -4 3 -11 30 -15 60 -3
30 -11 55 -16 55 -5 0 -8 3 -7 8 4 12 -24 116 -38 144 -8 15 -13 31 -12 35 1
4 -3 18 -10 31 -7 12 -9 22 -5 22 4 0 2 5 -5 12 -7 7 -12 17 -12 24 0 7 -10
34 -22 61 -12 26 -20 54 -19 61 1 6 -3 12 -9 12 -5 0 -9 3 -8 8 1 7 -6 26 -37
97 -10 22 -17 43 -17 48 1 4 -3 7 -10 7 -6 0 -9 2 -6 5 3 3 -7 31 -23 62 -16
31 -29 63 -29 70 0 8 -4 11 -10 8 -6 -3 -10 3 -10 14 0 27 -11 52 -20 46 -4
-3 -7 1 -7 8 2 19 -34 97 -44 97 -5 0 -9 9 -9 19 0 11 -4 22 -9 25 -5 3 -23
36 -42 73 -18 38 -36 70 -39 73 -8 8 -45 82 -45 92 0 5 -7 13 -15 18 -8 5 -16
14 -16 20 -1 5 -2 14 -3 19 0 5 -7 16 -13 23 -18 19 -48 69 -55 91 -3 9 -8 17
-12 17 -4 0 -13 16 -21 35 -8 19 -17 35 -21 35 -4 0 -10 11 -13 24 -3 14 -12
31 -19 38 -7 7 -25 39 -41 71 -15 31 -32 57 -38 57 -6 0 -8 3 -5 6 4 4 -2 19
-13 34 -11 15 -17 30 -13 34 3 3 2 6 -4 6 -9 0 -36 44 -37 62 -1 4 -8 15 -16
25 -18 22 -44 75 -42 86 1 4 -2 7 -7 7 -4 0 -16 20 -25 44 -9 25 -24 50 -31
56 -8 7 -12 17 -9 22 4 6 2 13 -3 17 -11 7 -67 123 -65 134 1 4 -2 7 -7 7 -5
0 -12 14 -16 30 -4 17 -10 30 -15 30 -4 0 -10 10 -13 23 -3 12 -21 60 -41 107
-21 47 -38 90 -39 95 -1 6 -4 12 -8 15 -6 6 -70 176 -73 195 -1 8 -5 18 -9 21
-4 4 -7 17 -7 29 0 13 -7 28 -15 35 -20 17 -6 33 45 50 22 7 40 17 40 22 0 4
3 7 8 6 12 -3 62 24 62 34 0 4 5 8 12 8 24 0 134 127 165 190 36 73 46 98 47
120 1 8 5 21 9 28 5 7 3 12 -5 12 -10 0 -10 2 1 9 16 10 10 156 -9 191 -6 12
-10 31 -7 41 3 10 1 17 -4 13 -5 -3 -9 4 -9 15 0 12 -4 21 -10 21 -5 0 -10 6
-10 14 0 7 -7 19 -15 26 -9 7 -13 15 -11 17 6 6 -17 33 -88 107 -33 34 -56 54
-52 46 6 -11 4 -11 -6 1 -7 9 -23 19 -36 23 -12 4 -22 12 -22 17 0 5 -9 9 -20
9 -11 0 -20 5 -20 11 0 5 -5 7 -10 4 -6 -3 -17 1 -26 9 -8 9 -25 17 -37 18
-36 2 -41 3 -55 12 -22 14 -194 16 -211 3 -12 -10 -13 -9 -6 2 6 11 4 13 -9 8
-10 -4 -29 -7 -42 -7 -14 0 -23 -4 -19 -9 3 -6 -3 -10 -12 -10 -28 1 -77 -11
-83 -21 -3 -4 -24 -14 -48 -20 -23 -7 -40 -15 -37 -18 3 -3 -13 -16 -35 -29
-22 -13 -40 -29 -40 -35 0 -6 -3 -9 -6 -6 -3 4 -22 -12 -42 -35 -20 -23 -41
-45 -46 -48 -5 -4 -5 -12 -1 -19 5 -9 4 -11 -3 -6 -7 4 -12 1 -12 -9 0 -8 -6
-18 -14 -21 -12 -4 -27 -48 -25 -70 0 -4 -4 -10 -11 -14 -6 -4 -14 -32 -17
-63 -3 -32 -10 -57 -15 -57 -5 0 -6 -4 -3 -10 4 -7 -265 -10 -798 -10 l-805 0
-6 23 c-3 12 -6 37 -6 55 0 17 -4 32 -8 32 -5 0 -9 6 -10 13 -3 38 -22 87 -33
87 -6 0 -7 5 -4 10 3 6 1 10 -4 10 -6 0 -11 7 -11 15 0 17 -132 153 -167 173
-13 6 -33 18 -45 25 -13 6 -26 17 -30 22 -4 6 -8 7 -8 2 0 -4 -13 -1 -30 8
-16 8 -40 15 -55 15 -14 0 -25 4 -25 8 0 5 -6 9 -12 10 -35 4 -237 9 -241 6z
m2314 -736 c1 -7 1 -16 0 -20 0 -5 3 -8 8 -8 5 0 8 -13 7 -30 -1 -16 1 -30 5
-30 4 0 8 -8 7 -17 0 -10 3 -35 6 -55 7 -38 7 -38 -26 -39 -40 -1 -1636 0
-1660 0 -15 1 -17 8 -11 49 3 26 11 50 17 54 7 5 6 8 -3 8 -9 0 -10 4 -4 13 6
6 11 19 11 27 1 12 7 42 11 58 1 1 368 2 816 2 645 0 815 -3 816 -12z m-1339
-478 c2 -39 1 -70 -2 -70 -3 0 -3 -27 0 -60 3 -33 3 -60 -1 -60 -4 0 -4 -13 1
-30 5 -16 5 -30 1 -30 -5 0 -5 -18 -1 -40 4 -22 4 -40 0 -40 -3 0 -4 -22 0
-50 4 -27 4 -50 0 -50 -3 0 -3 -27 0 -60 3 -33 3 -60 0 -60 -3 0 -3 -27 0 -60
3 -33 3 -60 0 -60 -3 0 -3 -27 0 -60 3 -33 3 -60 0 -60 -3 0 -3 -36 0 -80 3
-44 3 -80 0 -80 -3 0 -3 -36 0 -80 3 -44 3 -80 0 -80 -3 0 -3 -36 0 -80 3 -44
3 -80 0 -80 -3 0 -3 -36 0 -80 3 -44 3 -80 0 -80 -3 0 -3 -36 0 -80 3 -44 3
-80 0 -80 -3 0 -3 -36 0 -80 3 -44 3 -80 0 -80 -3 0 -3 -36 0 -80 3 -44 3 -80
0 -80 -3 0 -3 -27 0 -60 3 -33 3 -60 0 -60 -3 0 -3 -27 0 -60 3 -33 3 -60 0
-60 -3 0 -3 -27 0 -60 3 -33 3 -60 -1 -60 -4 0 -4 -13 1 -30 5 -16 5 -30 1
-30 -5 0 -5 -18 -1 -40 4 -22 4 -40 0 -40 -3 0 -4 -22 0 -50 4 -27 4 -50 0
-50 -3 0 -3 -27 0 -60 3 -33 3 -60 0 -60 -3 0 -3 -27 0 -60 3 -33 3 -60 -1
-60 -4 0 -4 -13 1 -30 5 -17 5 -30 1 -30 -5 0 -5 -18 -1 -40 4 -22 4 -40 0
-40 -3 0 -4 -22 0 -50 4 -27 4 -50 0 -50 -3 0 -3 -27 0 -60 3 -33 3 -60 0 -60
-3 0 -3 -27 0 -60 3 -33 3 -60 0 -60 -3 0 -3 -27 0 -60 3 -33 3 -60 0 -60 -3
0 -3 -36 0 -80 3 -44 3 -80 0 -80 -3 0 -3 -36 0 -80 3 -44 3 -80 0 -80 -3 0
-3 -36 0 -80 3 -44 3 -80 0 -80 -3 0 -6 -12 -5 -27 0 -32 17 -31 -175 -10
l-25 3 -1 1955 c0 1074 1 1960 4 1967 3 8 33 12 102 12 l98 0 4 -70z m418 8
c3 -32 3 -58 0 -58 -3 0 -3 -27 0 -60 3 -33 3 -60 0 -60 -3 0 -3 -27 0 -60 3
-33 3 -60 0 -60 -4 0 -4 -22 0 -50 4 -27 3 -50 -2 -50 -5 0 -4 -9 2 -20 8 -14
8 -20 0 -20 -8 0 -8 -6 0 -20 8 -14 8 -20 0 -20 -8 0 -8 -6 0 -20 8 -14 8 -20
0 -20 -8 0 -8 -6 0 -20 8 -14 8 -20 0 -20 -8 0 -8 -6 0 -20 8 -14 8 -20 0 -20
-8 0 -8 -6 0 -20 8 -14 8 -20 0 -20 -8 0 -8 -6 0 -20 6 -12 7 -20 1 -20 -6 0
-6 -11 -1 -30 5 -16 5 -30 1 -30 -4 0 -4 -27 -1 -60 3 -33 3 -60 0 -60 -3 0
-3 -27 0 -60 3 -33 3 -60 -1 -60 -3 0 -3 -18 1 -40 4 -22 4 -40 1 -40 -4 0 -4
-27 -1 -60 3 -33 3 -60 0 -60 -3 0 -3 -27 0 -60 3 -33 3 -60 -1 -60 -3 0 -3
-18 1 -40 4 -22 4 -40 1 -40 -4 0 -4 -27 -1 -60 3 -33 3 -60 0 -60 -3 0 -3
-27 0 -60 3 -33 3 -60 -1 -60 -3 0 -3 -18 1 -40 4 -22 4 -40 1 -40 -4 0 -4
-27 -1 -60 3 -33 3 -60 0 -60 -3 0 -3 -27 0 -60 3 -33 3 -60 -1 -60 -4 0 -4
-13 1 -30 5 -19 5 -30 -1 -30 -6 0 -5 -8 1 -20 8 -14 8 -20 0 -20 -8 0 -8 -6
0 -20 8 -14 8 -20 0 -20 -8 0 -8 -6 0 -20 8 -14 8 -20 0 -20 -8 0 -8 -6 0 -20
8 -14 8 -20 0 -20 -8 0 -8 -6 0 -20 8 -14 8 -20 0 -20 -8 0 -8 -6 0 -20 8 -14
8 -20 0 -20 -8 0 -8 -6 0 -20 6 -11 7 -20 2 -20 -5 0 -6 -22 -2 -50 4 -27 4
-50 0 -50 -3 0 -3 -27 0 -60 3 -33 3 -60 0 -60 -3 0 -3 -27 0 -60 3 -33 3 -60
0 -60 -3 0 -3 -27 0 -60 3 -33 3 -60 0 -60 -3 0 -3 -27 0 -60 3 -33 3 -60 0
-60 -4 0 -4 -23 0 -50 4 -27 3 -50 -2 -50 -5 0 -4 -9 2 -20 8 -14 8 -20 0 -20
-8 0 -8 -6 0 -20 8 -14 8 -20 0 -20 -8 0 -8 -6 0 -20 8 -14 8 -20 0 -20 -8 0
-8 -6 0 -20 8 -14 8 -20 0 -20 -8 0 -8 -6 0 -20 8 -14 8 -20 0 -20 -8 0 -8 -6
0 -20 8 -14 8 -20 0 -20 -8 0 -8 -6 0 -20 6 -12 7 -20 1 -20 -6 0 -6 -11 -1
-30 5 -16 5 -30 1 -30 -4 0 -4 -27 -1 -60 3 -33 3 -60 0 -60 -3 0 -3 -27 0
-60 3 -33 3 -60 -1 -60 -3 0 -3 -18 1 -40 4 -22 4 -40 1 -40 -4 0 -4 -27 -1
-60 3 -33 3 -60 0 -60 -3 0 -3 -27 0 -60 3 -33 3 -60 0 -60 -3 0 -5 -15 -4
-34 2 -30 -1 -34 -20 -32 -12 1 -27 5 -33 9 -6 4 -14 3 -17 -2 -3 -5 -14 -7
-24 -5 -9 3 -36 5 -60 7 -23 1 -43 7 -43 12 0 6 -5 16 -11 22 -7 9 -7 13 1 13
7 0 9 5 5 12 -10 16 -10 50 -1 65 4 6 3 14 -3 18 -6 4 -7 12 0 24 6 12 5 22
-2 29 -9 9 -9 12 1 12 7 0 9 5 5 12 -10 16 -10 50 -1 65 4 6 3 14 -3 18 -6 4
-7 12 0 24 6 12 5 22 -2 29 -9 9 -9 12 1 12 7 0 9 5 5 12 -10 16 -10 50 -1 65
4 6 3 14 -3 18 -6 4 -7 12 0 24 6 12 5 22 -2 29 -9 9 -9 12 1 12 7 0 9 5 5 12
-11 17 -11 58 -1 65 4 2 2 12 -5 21 -11 13 -11 14 2 7 13 -8 13 -7 1 8 -9 11
-10 17 -2 17 13 0 10 22 -4 32 -6 5 -6 8 1 8 12 0 12 56 0 67 -3 3 -1 12 5 20
6 7 7 13 2 13 -11 0 -11 29 0 47 4 6 3 14 -1 17 -10 6 -9 36 1 53 4 6 3 15 -3
18 -8 5 -7 11 1 22 10 12 10 16 -2 24 -11 7 -11 9 0 9 10 0 11 3 2 14 -7 9 -8
17 -2 20 10 7 9 25 -2 44 -5 7 -3 12 3 12 8 0 7 6 -1 21 -9 17 -8 20 3 13 11
-6 11 -5 -1 9 -9 11 -10 17 -2 17 13 0 10 22 -4 32 -6 5 -6 8 1 8 12 0 12 56
0 67 -3 3 -1 12 5 20 6 7 7 13 2 13 -11 0 -11 29 0 47 4 6 3 14 -1 17 -10 6
-9 36 1 53 4 6 3 15 -3 18 -8 5 -7 11 1 22 10 12 10 16 -2 24 -11 7 -11 9 0 9
10 0 11 3 2 14 -7 9 -8 17 -2 20 10 7 9 25 -2 44 -5 7 -3 12 3 12 8 0 7 6 -1
21 -9 17 -8 20 3 13 11 -6 11 -5 -1 9 -9 11 -10 17 -2 17 13 0 10 22 -4 32 -6
5 -6 8 1 8 12 0 12 56 0 67 -3 3 -1 12 5 20 6 7 7 13 2 13 -11 0 -11 36 0 46
4 4 1 14 -6 22 -10 13 -9 14 3 7 13 -8 13 -7 1 8 -9 11 -10 17 -2 17 13 0 10
22 -4 32 -6 5 -6 8 1 8 12 0 13 38 1 58 -5 7 -3 12 3 12 6 0 8 5 4 12 -10 16
-10 50 -1 65 4 6 3 14 -3 18 -6 4 -7 12 0 24 6 12 5 22 -2 29 -9 9 -9 12 1 12
7 0 9 5 5 12 -10 16 -10 50 -1 65 4 6 3 14 -3 18 -6 4 -7 12 0 24 6 12 5 22
-2 29 -9 9 -9 12 1 12 7 0 9 5 5 12 -10 16 -10 50 -1 65 4 6 3 14 -3 18 -6 4
-7 12 0 24 6 12 5 22 -2 29 -9 9 -9 12 1 12 7 0 9 5 5 12 -10 16 -10 50 -1 65
4 6 3 14 -3 18 -6 4 -7 12 0 24 6 12 5 22 -2 29 -9 9 -9 12 1 12 7 0 9 5 5 12
-10 16 -10 50 -1 65 4 6 3 14 -3 18 -6 4 -7 12 0 24 6 12 5 22 -2 29 -9 9 -9
12 1 12 7 0 9 5 5 12 -10 16 -10 50 -1 65 4 6 3 14 -3 18 -6 4 -7 12 0 24 6
12 5 22 -2 29 -9 9 -9 12 1 12 7 0 9 5 5 12 -10 16 -10 50 -1 65 4 6 3 14 -3
18 -6 4 -7 12 0 24 6 12 5 22 -2 29 -9 9 -9 12 1 12 7 0 9 5 5 12 -11 17 -11
58 -1 65 4 2 2 12 -5 21 -11 13 -11 14 2 7 13 -8 13 -7 1 8 -9 11 -10 17 -2
17 13 0 10 22 -4 32 -6 5 -6 8 1 8 12 0 12 56 0 67 -3 3 -1 12 5 20 6 7 7 13
2 13 -11 0 -11 29 0 47 4 6 3 14 -1 17 -10 6 -9 36 1 53 4 6 3 15 -3 18 -8 5
-7 11 1 22 10 12 10 16 -2 24 -11 7 -11 9 0 9 10 0 11 3 2 14 -7 9 -8 17 -2
20 10 7 9 25 -2 44 -5 7 -3 12 3 12 8 0 7 6 -1 21 -9 17 -8 20 3 13 11 -6 11
-5 -1 9 -9 11 -10 17 -2 17 13 0 10 22 -4 32 -6 5 -6 8 1 8 12 0 12 56 0 67
-3 3 -1 12 5 20 6 7 7 13 2 13 -11 0 -11 29 0 47 4 6 3 15 -3 18 -8 5 -7 11 1
21 8 10 8 14 0 14 -8 0 -7 6 1 20 12 19 22 20 108 18 l95 -3 5 -57z m415 26
c-2 -19 1 -32 5 -29 5 3 5 -9 -1 -27 -11 -41 -11 -41 2 -32 8 5 8 1 0 -14 -6
-11 -11 -23 -11 -27 0 -3 5 -3 11 1 8 5 8 1 0 -14 -14 -27 -14 -35 2 -26 8 5
8 2 -2 -9 -11 -14 -11 -17 0 -17 11 0 11 -3 -1 -11 -11 -8 -12 -12 -2 -16 6
-2 9 -9 6 -15 -10 -16 -10 -137 -1 -131 5 3 4 -4 -2 -15 -14 -27 -14 -35 2
-26 8 5 8 2 -2 -9 -11 -14 -11 -17 0 -17 11 0 11 -3 -1 -11 -11 -8 -12 -12 -2
-16 6 -2 9 -9 6 -15 -10 -16 -10 -137 -1 -131 5 3 4 -4 -2 -15 -14 -27 -14
-35 2 -26 8 5 8 2 -2 -9 -11 -14 -11 -17 0 -17 11 0 11 -3 -1 -11 -11 -8 -12
-12 -2 -16 6 -2 9 -9 6 -15 -10 -16 -10 -137 -1 -131 5 3 4 -4 -2 -15 -14 -27
-14 -35 2 -26 8 5 8 2 -2 -9 -11 -14 -11 -17 0 -17 11 0 11 -3 -1 -11 -11 -8
-12 -12 -2 -16 6 -2 9 -9 6 -15 -10 -16 -10 -137 -1 -131 5 3 4 -4 -2 -15 -14
-27 -14 -35 2 -26 8 5 8 2 -2 -9 -11 -14 -11 -17 0 -17 11 0 11 -3 -1 -11 -11
-8 -12 -12 -2 -16 6 -2 9 -9 6 -15 -10 -16 -10 -137 -1 -131 5 3 4 -4 -2 -15
-6 -11 -11 -23 -11 -27 0 -3 5 -3 11 1 8 5 8 1 0 -14 -6 -11 -11 -23 -11 -27
0 -3 5 -3 11 1 8 5 8 1 0 -14 -14 -27 -14 -35 2 -26 8 5 8 2 -2 -9 -11 -14
-11 -17 0 -17 11 0 11 -3 -1 -11 -11 -8 -12 -12 -2 -16 6 -2 9 -9 6 -15 -10
-16 -10 -137 -1 -131 5 3 4 -4 -2 -15 -14 -27 -14 -35 2 -26 8 5 8 2 -2 -9
-11 -14 -11 -17 0 -17 11 0 11 -3 -1 -11 -11 -8 -12 -12 -2 -16 6 -2 9 -9 6
-15 -10 -16 -10 -137 -1 -131 5 3 4 -4 -2 -15 -14 -27 -14 -35 2 -26 8 5 8 2
-2 -9 -11 -14 -11 -17 0 -17 11 0 11 -3 -1 -11 -11 -8 -12 -12 -2 -16 6 -2 9
-9 6 -15 -10 -16 -10 -137 -1 -131 5 3 4 -4 -2 -15 -14 -27 -14 -35 2 -26 8 5
8 2 -2 -9 -11 -14 -11 -17 0 -17 11 0 11 -3 -1 -11 -11 -8 -12 -12 -2 -16 6
-2 9 -9 6 -15 -10 -16 -10 -137 -1 -131 5 3 4 -4 -2 -15 -14 -27 -14 -35 2
-26 8 5 8 2 -2 -9 -11 -14 -11 -17 0 -17 11 0 11 -3 -1 -11 -11 -8 -12 -12 -2
-16 6 -2 9 -9 6 -15 -10 -16 -10 -137 -1 -131 5 3 4 -4 -2 -15 -14 -26 -14
-35 0 -26 8 5 8 1 0 -14 -14 -26 -14 -35 0 -26 8 5 8 1 0 -14 -14 -27 -14 -35
2 -26 8 5 8 2 -2 -9 -11 -14 -11 -17 0 -17 11 0 11 -3 -1 -11 -11 -8 -12 -12
-2 -16 6 -2 9 -9 6 -15 -10 -16 -10 -137 -1 -131 5 3 4 -4 -2 -15 -14 -27 -14
-35 2 -26 8 5 8 2 -2 -9 -11 -14 -11 -17 0 -17 11 0 11 -3 -1 -11 -11 -8 -12
-12 -2 -16 6 -2 9 -9 6 -15 -10 -16 -10 -137 -1 -131 5 3 4 -4 -2 -15 -14 -27
-14 -35 2 -26 8 5 8 2 -2 -9 -11 -14 -11 -17 0 -17 11 0 11 -3 -1 -11 -11 -8
-12 -12 -2 -16 6 -2 9 -9 6 -15 -10 -16 -10 -137 -1 -131 5 3 4 -4 -2 -15 -14
-27 -14 -35 2 -26 8 5 8 2 -2 -9 -11 -14 -11 -17 0 -17 11 0 11 -3 -1 -11 -11
-8 -12 -12 -2 -16 6 -2 9 -9 6 -15 -10 -16 -10 -137 -1 -131 5 3 4 -4 -2 -15
-14 -27 -14 -35 2 -26 8 5 8 2 -2 -9 -11 -14 -11 -17 0 -17 11 0 11 -3 -1 -11
-11 -8 -12 -12 -2 -16 6 -2 9 -9 6 -15 -9 -14 -11 -137 -2 -132 3 2 1 -9 -5
-26 -10 -27 -15 -29 -54 -27 -24 2 -43 -1 -43 -6 0 -5 -6 -4 -14 2 -8 7 -17 8
-19 4 -8 -13 -72 -8 -70 5 2 7 -1 12 -7 12 -6 0 -6 9 0 25 7 17 6 25 -1 25 -8
0 -8 4 0 14 8 10 9 16 1 21 -7 4 -7 12 0 26 8 13 7 19 0 19 -7 0 -7 7 1 21 6
12 7 24 3 28 -11 8 -14 41 -5 41 4 0 8 7 8 15 0 8 -4 15 -9 15 -5 0 -4 10 3
21 6 12 7 24 3 28 -11 8 -14 41 -5 41 4 0 8 7 8 15 0 8 -4 15 -9 15 -5 0 -4
10 3 21 8 17 8 23 -1 29 -8 5 -9 13 -4 21 12 20 14 39 3 39 -5 0 -4 11 1 25 7
17 6 25 -1 25 -8 0 -8 4 0 14 8 10 9 16 1 21 -7 4 -7 12 0 26 8 13 7 19 0 19
-7 0 -7 7 1 21 6 12 7 24 3 28 -11 8 -14 41 -5 41 4 0 8 7 8 15 0 8 -4 15 -9
15 -5 0 -4 10 3 21 6 12 7 24 3 28 -11 8 -14 41 -5 41 4 0 8 7 8 15 0 8 -4 15
-9 15 -5 0 -4 10 3 21 8 17 8 23 -1 29 -8 5 -9 13 -4 21 12 20 14 39 3 39 -5
0 -4 11 1 25 7 17 6 25 -1 25 -8 0 -8 4 0 14 8 10 9 16 1 21 -7 4 -7 12 0 26
8 13 7 19 0 19 -7 0 -7 7 1 21 6 12 7 24 3 28 -11 8 -14 41 -5 41 4 0 8 7 8
15 0 8 -4 15 -9 15 -5 0 -4 10 3 21 6 12 7 24 3 28 -11 8 -14 41 -5 41 4 0 8
7 8 15 0 8 -4 15 -9 15 -5 0 -4 10 3 21 8 17 8 23 -1 29 -8 5 -9 13 -4 21 12
20 14 39 3 39 -5 0 -4 11 1 25 7 17 6 25 -1 25 -8 0 -8 4 0 14 8 10 9 16 1 21
-7 4 -7 12 0 26 8 13 7 19 0 19 -7 0 -7 7 1 21 6 12 7 24 3 28 -11 8 -14 41
-5 41 4 0 8 7 8 15 0 8 -4 15 -9 15 -5 0 -4 10 3 21 6 12 7 24 3 28 -11 8 -14
41 -5 41 4 0 8 7 8 15 0 8 -4 15 -9 15 -5 0 -4 10 3 21 8 17 8 23 -1 29 -8 5
-9 13 -4 21 12 20 14 39 3 39 -5 0 -4 11 1 25 7 17 6 25 -1 25 -8 0 -8 4 0 14
8 10 9 16 1 21 -7 4 -7 12 0 26 8 13 7 19 0 19 -7 0 -7 7 1 21 6 12 7 24 3 28
-11 8 -14 41 -5 41 4 0 8 7 8 15 0 8 -4 15 -9 15 -5 0 -4 10 3 21 6 12 7 24 3
28 -11 8 -14 41 -5 41 4 0 8 7 8 15 0 8 -4 15 -9 15 -5 0 -4 10 3 21 8 17 8
23 -1 29 -8 5 -9 13 -4 21 12 20 14 39 3 39 -5 0 -4 11 1 25 7 17 6 25 -1 25
-8 0 -8 4 0 14 8 10 9 16 1 21 -7 4 -7 12 0 26 8 14 7 19 -1 19 -8 0 -8 4 1
15 8 10 9 15 1 15 -7 0 -8 8 -1 25 7 17 6 25 -1 25 -8 0 -8 4 0 14 8 10 9 16
1 21 -7 4 -7 12 0 26 8 13 7 19 0 19 -7 0 -7 7 1 21 6 12 7 24 3 28 -11 8 -14
41 -5 41 4 0 8 7 8 15 0 8 -4 15 -9 15 -5 0 -4 10 3 21 6 12 7 24 3 28 -11 8
-14 41 -5 41 4 0 8 7 8 15 0 8 -4 15 -9 15 -5 0 -4 10 3 21 8 17 8 23 -1 29
-8 5 -9 13 -4 21 12 20 14 39 3 39 -5 0 -4 11 1 25 7 17 6 25 -1 25 -8 0 -8 4
0 14 8 10 9 16 1 21 -7 4 -7 12 0 26 8 13 7 19 0 19 -7 0 -7 7 1 21 6 12 7 24
3 28 -11 8 -14 41 -5 41 4 0 8 7 8 15 0 8 -4 15 -9 15 -5 0 -4 10 3 21 6 12 7
24 3 28 -11 8 -14 41 -5 41 4 0 8 7 8 15 0 8 -4 15 -9 15 -5 0 -4 10 3 21 8
17 8 23 -1 29 -8 5 -9 13 -4 21 12 20 14 39 3 39 -5 0 -4 11 1 25 7 17 6 25
-1 25 -8 0 -8 4 0 14 8 10 9 16 1 21 -7 4 -7 12 0 26 8 13 7 19 0 19 -7 0 -7
7 1 21 6 12 7 24 3 28 -11 8 -14 41 -5 41 4 0 8 7 8 15 0 8 -4 15 -9 15 -5 0
-4 10 3 21 8 17 8 23 -1 29 -8 5 -9 13 -4 21 13 21 13 39 1 39 -7 0 -5 5 3 10
13 9 13 10 0 10 -13 0 -13 1 0 10 12 8 12 10 1 10 -10 0 -11 3 -2 13 6 8 8 17
4 21 -4 3 41 6 99 5 l106 -1 -3 -34z m421 -1924 c-1 -1077 -5 -1962 -9 -1966
-8 -9 -18 -11 -87 -18 -25 -3 -59 -8 -77 -10 -22 -3 -33 0 -37 10 -4 10 -2 13
7 8 9 -5 9 -4 0 6 -8 9 -9 19 -2 32 7 12 6 18 -1 18 -7 0 -8 6 0 19 7 14 7 22
0 26 -8 5 -7 11 1 21 9 11 9 14 -1 14 -10 0 -10 3 -1 14 8 10 9 16 1 21 -7 4
-7 12 0 26 8 13 7 19 0 19 -7 0 -8 6 -1 19 6 10 7 21 4 25 -9 8 -11 46 -3 46
3 0 6 9 6 20 0 11 -4 20 -9 20 -5 0 -4 7 3 15 7 8 9 15 4 15 -5 0 -9 11 -9 25
0 14 3 25 6 25 8 0 5 38 -4 46 -4 4 -2 13 4 21 6 7 7 13 2 13 -5 0 -9 9 -9 20
0 11 3 20 6 20 3 0 6 9 6 20 0 11 -4 20 -9 20 -5 0 -4 7 3 15 7 8 9 15 4 15
-5 0 -9 11 -9 25 0 14 3 25 6 25 8 0 5 38 -4 46 -4 4 -2 13 4 21 6 7 7 13 2
13 -5 0 -9 9 -9 20 0 11 3 20 6 20 3 0 6 9 6 20 0 11 -4 20 -9 20 -5 0 -4 7 3
15 7 8 9 15 4 15 -5 0 -9 11 -9 25 0 14 3 25 6 25 3 0 6 7 6 15 0 8 -5 15 -10
15 -5 0 -4 6 2 14 8 10 9 16 1 21 -7 4 -7 12 0 26 8 13 7 19 0 19 -7 0 -8 6 0
19 7 14 7 22 0 26 -8 5 -7 11 1 21 9 11 9 14 -1 14 -10 0 -10 3 -1 14 8 10 9
16 1 21 -7 4 -7 12 0 26 8 13 7 19 0 19 -7 0 -8 6 0 19 7 14 7 22 0 26 -8 5
-7 11 1 21 9 11 9 14 -1 14 -10 0 -10 3 -1 14 8 10 9 16 1 21 -7 4 -7 12 0 26
8 13 7 19 0 19 -7 0 -8 6 0 19 7 14 7 22 0 26 -8 5 -7 11 1 21 9 11 9 14 -1
14 -10 0 -10 3 -1 14 8 10 9 16 1 21 -7 4 -7 12 0 26 8 13 7 19 0 19 -7 0 -8
6 -1 19 6 10 7 21 4 25 -9 8 -11 46 -3 46 3 0 6 9 6 20 0 11 -4 20 -9 20 -5 0
-4 7 3 15 7 8 9 15 4 15 -5 0 -9 11 -9 25 0 14 3 25 6 25 8 0 5 38 -4 46 -4 4
-2 13 4 21 6 7 7 13 2 13 -5 0 -9 9 -9 20 0 11 3 20 6 20 3 0 6 9 6 20 0 11
-4 20 -9 20 -5 0 -4 7 3 15 7 8 9 15 4 15 -5 0 -9 11 -9 25 0 14 3 25 6 25 8
0 5 38 -4 46 -4 4 -2 13 4 21 6 7 7 13 2 13 -5 0 -9 9 -9 20 0 11 3 20 6 20 3
0 6 9 6 20 0 11 -4 20 -9 20 -5 0 -4 7 3 15 7 8 9 15 4 15 -5 0 -9 11 -9 25 0
14 3 25 6 25 3 0 6 7 6 15 0 8 -5 15 -10 15 -5 0 -4 6 2 14 8 10 9 16 1 21 -7
4 -7 12 0 26 8 13 7 19 0 19 -7 0 -8 6 0 19 7 14 7 22 0 26 -8 5 -7 11 1 21 9
11 9 14 -1 14 -10 0 -10 3 -1 14 8 10 9 16 1 21 -7 4 -7 12 0 26 8 13 7 19 0
19 -7 0 -8 6 0 19 7 14 7 22 0 26 -8 5 -7 11 1 21 9 11 9 14 -1 14 -10 0 -10
3 -1 14 8 10 9 16 1 21 -7 4 -7 12 0 26 8 13 7 19 0 19 -7 0 -8 6 0 19 7 14 7
22 0 26 -8 5 -7 11 1 21 9 11 9 14 -1 14 -10 0 -10 3 -1 14 8 10 9 16 1 21 -7
4 -7 12 0 26 8 13 7 19 0 19 -7 0 -8 6 -1 19 6 10 7 21 4 25 -9 8 -11 46 -3
46 3 0 6 9 6 20 0 11 -4 20 -9 20 -5 0 -4 7 3 15 7 8 9 15 4 15 -5 0 -9 11 -9
25 0 14 3 25 6 25 8 0 5 38 -4 46 -4 4 -2 13 4 21 6 7 7 13 2 13 -5 0 -9 9 -9
20 0 11 3 20 6 20 3 0 6 9 6 20 0 11 -4 20 -9 20 -5 0 -4 7 3 15 7 8 9 15 4
15 -5 0 -9 11 -9 25 0 14 3 25 6 25 8 0 5 38 -4 46 -4 4 -2 13 4 21 6 7 7 13
2 13 -5 0 -9 9 -9 20 0 11 3 20 6 20 3 0 6 9 6 20 0 11 -4 20 -9 20 -5 0 -4 7
3 15 7 8 9 15 4 15 -5 0 -9 11 -9 25 0 14 3 25 6 25 3 0 6 7 6 15 0 8 -5 15
-10 15 -5 0 -4 6 2 14 8 10 9 16 1 21 -7 4 -7 12 0 26 8 13 7 19 0 19 -7 0 -8
6 0 19 7 14 7 22 0 26 -8 5 -7 11 1 21 9 11 9 14 -1 14 -10 0 -10 3 -1 14 8
10 9 16 1 21 -7 4 -7 12 0 26 8 13 7 19 0 19 -7 0 -8 6 0 19 7 14 7 22 0 26
-8 5 -7 11 1 21 9 11 9 14 -1 14 -10 0 -10 3 -1 14 8 10 9 16 1 21 -7 4 -7 12
0 26 8 13 7 19 0 19 -8 0 -8 6 0 20 10 18 20 20 109 19 l97 -1 0 -1958z m289
1665 c59 -173 177 -453 252 -593 18 -35 33 -70 33 -78 0 -8 5 -14 11 -14 5 0
7 -4 4 -10 -3 -5 -1 -10 4 -10 6 0 11 -6 11 -12 0 -7 16 -42 35 -78 19 -36 47
-87 60 -115 31 -61 48 -88 57 -95 4 -3 14 -21 23 -40 35 -75 51 -100 60 -93 4
4 6 4 3 -2 -4 -5 7 -32 23 -60 16 -27 37 -66 47 -85 9 -19 19 -37 22 -40 12
-12 30 -51 30 -65 0 -9 4 -14 8 -11 5 3 14 -11 21 -30 7 -18 17 -34 22 -34 5
0 9 -8 9 -17 0 -10 9 -29 20 -43 11 -14 20 -33 20 -42 0 -10 5 -18 10 -18 6 0
10 -4 10 -9 0 -5 5 -22 12 -38 6 -15 11 -31 10 -35 -1 -5 2 -8 8 -8 5 0 10 -9
10 -19 0 -11 5 -23 10 -26 6 -4 8 -11 5 -16 -4 -5 -2 -9 3 -9 8 0 13 -11 22
-47 0 -2 9 -23 20 -49 11 -25 20 -54 20 -64 0 -10 3 -20 8 -22 7 -3 43 -106
49 -143 2 -11 8 -33 14 -48 7 -15 9 -30 5 -34 -3 -3 -2 -11 4 -17 10 -13 21
-65 22 -108 1 -16 6 -28 12 -28 6 0 4 -5 -4 -10 -8 -5 -10 -10 -4 -10 6 0 11
-10 10 -22 -1 -13 1 -40 5 -60 3 -21 2 -41 -4 -47 -7 -7 -8 -11 -1 -11 6 0 9
-25 8 -62 -2 -35 -3 -63 -4 -63 -1 0 -2 -19 -4 -42 -1 -23 -5 -45 -9 -49 -4
-4 -1 -14 6 -22 9 -13 9 -14 0 -8 -11 6 -17 -17 -12 -50 0 -3 -7 -17 -16 -31
-12 -17 -13 -23 -4 -17 11 6 12 5 2 -7 -6 -8 -14 -28 -17 -44 -3 -17 -10 -31
-15 -33 -6 -2 -7 -10 -4 -18 3 -8 0 -14 -6 -14 -6 0 -11 -8 -11 -19 0 -10 -7
-24 -15 -31 -8 -6 -17 -21 -21 -33 -4 -12 -12 -26 -18 -33 -6 -6 -20 -24 -31
-39 -54 -74 -62 -84 -68 -78 -4 3 -7 -1 -7 -11 0 -9 -4 -14 -10 -11 -5 3 -10
-1 -10 -9 0 -9 -3 -16 -7 -16 -5 0 -25 -16 -45 -35 -21 -18 -38 -31 -38 -27 0
4 -4 2 -8 -3 -10 -14 -88 -75 -97 -75 -3 0 -26 -13 -49 -30 -24 -16 -46 -26
-50 -23 -3 4 -6 1 -6 -6 0 -7 -6 -11 -14 -8 -8 3 -17 -1 -20 -9 -3 -9 -10 -13
-15 -10 -5 4 -11 1 -13 -4 -3 -10 -21 -16 -51 -19 -5 -1 -6 -5 -3 -10 3 -5 0
-8 -7 -8 -21 2 -97 -26 -97 -35 0 -5 -5 -6 -10 -3 -6 4 -17 1 -25 -5 -8 -7
-15 -10 -15 -6 0 4 -13 0 -30 -9 -16 -9 -30 -13 -30 -11 0 3 -19 -2 -42 -10
-24 -9 -52 -17 -63 -19 -11 -1 -20 -3 -20 -4 0 -3 -10 -5 -63 -17 -32 -6 -32
-6 -23 19 6 15 6 29 2 32 -5 3 -5 21 -1 40 4 19 5 35 1 35 -9 0 -6 74 4 89 3
6 2 11 -2 11 -9 0 -8 103 1 127 3 7 2 13 -3 13 -9 0 -6 73 4 89 3 6 3 11 -2
11 -9 0 -8 133 1 149 4 6 4 11 -1 11 -4 0 -8 521 -9 1158 -1 636 -2 1360 -3
1607 -2 248 -2 457 -1 465 1 8 12 -23 25 -70 13 -47 40 -134 60 -195z m-1953
168 c-6 -80 -10 -3730 -3 -3741 4 -6 33 -18 65 -26 33 -9 61 -18 64 -21 8 -7
-48 3 -143 27 -44 11 -89 21 -100 23 -19 2 -31 6 -73 22 -9 3 -24 7 -32 7 -8
0 -17 4 -20 8 -3 4 -17 9 -32 12 -14 2 -37 10 -50 17 -12 7 -24 12 -25 11 -5
-3 -38 10 -64 24 -14 7 -29 11 -33 7 -3 -3 -6 -1 -6 6 0 7 -4 10 -9 7 -5 -3
-14 0 -20 7 -6 8 -29 20 -51 27 -22 7 -40 17 -40 22 0 4 -7 8 -15 8 -8 0 -24
9 -35 20 -11 11 -27 20 -35 20 -8 0 -15 5 -15 10 0 6 -5 10 -10 10 -14 0 -140
101 -140 112 0 4 -4 8 -10 8 -13 0 -50 37 -50 50 0 6 -7 10 -17 10 -9 0 -14 3
-10 6 3 4 1 12 -6 19 -28 29 -56 65 -52 65 3 0 1 6 -5 13 -25 30 -60 89 -60
102 0 8 -5 15 -10 15 -6 0 -9 3 -8 8 3 7 -13 51 -33 97 -8 18 -17 61 -24 110
-1 11 -3 20 -5 20 -1 0 -3 18 -4 41 -1 22 -5 45 -9 50 -3 6 -2 16 3 24 5 9 4
20 -2 28 -9 10 -8 16 1 22 8 5 9 10 3 14 -10 6 -7 79 3 97 4 5 1 9 -5 9 -7 0
-8 6 -2 18 5 9 8 27 6 40 -2 12 1 22 8 22 9 0 9 3 0 12 -7 7 -8 16 -3 22 5 6
12 36 16 66 4 30 12 59 18 63 9 6 9 10 0 14 -9 3 -9 11 3 29 9 13 14 24 11 24
-4 0 0 18 8 39 7 22 11 42 8 45 -4 3 -1 6 4 6 6 0 14 18 18 40 4 22 12 40 18
40 5 0 8 2 5 5 -7 7 42 142 77 215 35 71 49 103 47 113 -1 4 2 7 8 7 5 0 10 6
10 13 0 17 40 90 54 99 6 4 7 8 3 8 -5 0 0 15 11 33 11 17 29 48 39 67 82 148
98 176 107 182 6 4 7 8 3 8 -5 0 0 12 10 28 36 54 43 67 54 95 6 15 15 27 19
27 5 0 11 14 15 30 4 17 10 30 14 30 9 0 35 51 33 63 -1 4 2 7 7 7 5 0 14 14
20 30 5 17 15 30 22 30 7 0 10 3 6 6 -3 4 5 27 18 53 14 25 25 52 25 58 0 7 4
13 10 13 5 0 13 12 16 28 4 15 10 29 14 32 8 7 40 76 40 88 0 6 3 12 8 14 10
4 68 129 64 140 -1 4 2 8 7 8 5 0 12 12 16 27 3 15 20 53 36 86 16 32 29 65
29 73 0 8 4 14 9 14 6 0 8 9 6 20 -2 11 -1 20 4 20 7 0 35 67 36 85 0 6 6 16
13 23 7 8 10 18 7 23 -3 4 1 19 9 32 9 12 17 32 19 42 4 19 10 36 27 80 35 89
37 92 32 38z"/>
</g>
</svg>
